Genre:Action | Adventure | Crime
Language:English 
http://www.imdb.com/title/tt1515091/
Source:1080p.BluRay.x264-RSG Thanks!
SUBS - ENG when needed
Encoder:Tony

Format : AVI
Format/Info : Audio Video Interleave
File size : 1.57 GiB
Duration : 2h 8mn
Overall bit rate : 1 742 Kbps

Video
ID : 0
Format : MPEG-4 Visual
Format profile : Advanced Simple@L5
Format settings, BVOP : 1
Format settings, QPel : No
Format settings, GMC : No warppoints
Format settings, Matrix : Default (H.263)
Codec ID : XVID
Codec ID/Hint : XviD
Duration : 2h 8mn
Bit rate : 1 285 Kbps
Width : 640 pixels
Height : 264 pixels
Display aspect ratio : 2.40:1
Frame rate : 23.976 fps
Color space : YUV
Chroma subsampling : 4:2:0
Bit depth : 8 bits
Scan type : Progressive
Compression mode : Lossy
Bits/(Pixel*Frame) : 0.317
Stream size : 1.16 GiB (74%)
Writing library : XviD 1.2.1 (UTC 2008-12-04)

Audio
ID : 1
Format : AC-3
Format/Info : Audio Coding 3
Mode extension : CM (complete main)
Codec ID : 2000
Duration : 2h 8mn
Bit rate mode : Constant
Bit rate : 448 Kbps
Channel(s) : 6 channels
Channel positions : Front: L C R, Side: L R, LFE
Sampling rate : 48.0 KHz
Bit depth : 16 bits
Compression mode : Lossy
Stream size : 413 MiB (26%)
Alignment : Aligned on interleaves
Interleave, duration : 42 ms (1.00 video frame)
Interleave, preload duration : 512 ms


Plot:
Sherlock Holmes and his sidekick Dr. Watson join forces to outwit and bring down their fiercest adversary, Professor Moriarty.
 
http://img43.imageshack.us/img43/346/vlcsnap2012041518h24m35.png 
http://img839.imageshack.us/img839/7771/vlcsnap2012041518h25m30.png 
http://img696.imageshack.us/img696/3170/vlcsnap2012041518h24m19.png 
http://img209.imageshack.us/img209/3093/vlcsnap2012041518h23m00.png


